<svg width="923" height="161" viewBox="0 0 923 161" fill="none" xmlns="http://www.w3.org/2000/svg">
<g clip-path="url(#clip0_26_181)">
<path d="M267.6 88.1H257C256.5 88.1 256 88.4 255.9 88.9C253.9 95.9 248.5 99.6 240.3 99.6C229.5 99.6 222.7 91.5 222.7 78.5C222.7 65.5 229.4 57.7 240.3 57.7C248.2 57.7 253.9 61.6 255.9 68.4C256 68.9 256.5 69.2 257 69.2H267.6C268 69.2 268.3 69 268.5 68.8C268.7 68.5 268.8 68.1 268.7 67.8C265.5 54.6 255.2 47 240.4 47C222.5 47 210.5 59.6 210.5 78.5C210.5 97.4 222.5 110.2 240.4 110.2C254.8 110.2 265.4 102.5 268.7 89.6C268.7 89.5 268.8 89.3 268.8 89.2C268.7 88.6 268.2 88.1 267.6 88.1Z" fill="#fff"/>
<path d="M306.8 47C299.2 47 292.8 49.6 288.5 54.2V28.6C288.5 28 288 27.4 287.3 27.4H277.5C276.9 27.4 276.3 27.9 276.3 28.6V108C276.3 108.6 276.8 109.2 277.5 109.2H287.3C287.9 109.2 288.5 108.7 288.5 108V75.5C288.5 64.3 294.2 57.8 304.2 57.8C314.2 57.8 319.5 64 319.5 74.8V108C319.5 108.6 320 109.2 320.7 109.2H330.4C331 109.2 331.6 108.7 331.6 108V73.4C331.5 57.4 321.8 47 306.8 47Z" fill="#fff"/>
<path d="M371.9 47C364.3 47 358.1 49.7 354.1 54.8V49.3C354.1 48.7 353.6 48.1 352.9 48.1H343.1C342.5 48.1 341.9 48.6 341.9 49.3V108.1C341.9 108.7 342.4 109.3 343.1 109.3H352.9C353.5 109.3 354.1 108.8 354.1 108.1C354.1 108 354.1 107.9 354 107.7V76.1C354 64.7 358.9 59.5 369.3 59.5H371.9C372.5 59.5 373.1 59 373.1 58.3V48.2C373 47.6 372.5 47 371.9 47Z" fill="#fff"/>
<path d="M424 78.6C424 92.9 414.4 99.3 404.9 99.3C399.9 99.3 395.5 97.5 392.3 94.3C388.7 90.6 386.7 85.2 386.8 78.5C386.8 69 391.6 57.9 405.3 57.9C414.6 58 424 64.4 424 78.6ZM405.4 47.1C387.2 47.1 374.4 60 374.4 78.6C374.4 97.2 386.9 110.3 404.9 110.3C422.9 110.3 436.2 97 436.3 78.6C436.4 60 423.6 47.1 405.4 47.1Z" fill="#fff"/>
<path d="M473.8 47.1C466.5 47.1 460.3 49.7 456.1 54.2V49.3C456.1 48.7 455.6 48.1 454.9 48.1H445.1C444.5 48.1 443.9 48.6 443.9 49.3V108.1C443.9 108.7 444.4 109.3 445.1 109.3H454.9C455.5 109.3 456.1 108.8 456.1 108.1V75.6C456.1 64.4 461.8 57.9 471.8 57.9C481.8 57.9 487.1 64.1 487.1 74.9V108.2C487.1 108.8 487.6 109.4 488.3 109.4H498C498.6 109.4 499.2 108.9 499.2 108.2V73.6C499.1 57.2 489.4 47.1 473.8 47.1Z" fill="#fff"/>
<path d="M537.6 58C546.9 58 556.3 64.4 556.3 78.6C556.3 92.8 546.7 99.3 537.2 99.3C532.2 99.3 527.8 97.5 524.6 94.3C521 90.6 519 85.2 519.1 78.5C519.1 69.1 524 58 537.6 58ZM537.7 47.1C519.5 47.1 506.7 60 506.7 78.6C506.7 97.2 519.2 110.3 537.2 110.3C555.2 110.3 568.5 97 568.6 78.6C568.7 60 556 47.1 537.7 47.1Z" fill="#fff"/>
<path d="M601.3 73.9C593.9 71.9 587.6 70.1 587.6 64.7C587.6 60.5 591.7 57.7 597.9 57.7C604.7 57.7 609.1 61.2 609.5 66.8C609.5 67.4 610.1 67.9 610.7 67.9H620.5C620.8 67.9 621.1 67.8 621.4 67.5C621.6 67.3 621.7 66.9 621.7 66.6C621 54.5 612 47 598.3 47C584.6 47 575.5 54.4 575.5 64.6C575.5 77.9 587.5 81.1 597.1 83.6C604.2 85.5 610.3 87.1 610.3 91.9C610.3 96.7 606 99.4 599.4 99.4C592.2 99.4 587.2 95.9 586.7 90.5C586.6 89.9 586.1 89.4 585.5 89.4H575.4C575.1 89.4 574.8 89.5 574.5 89.8C574.3 90 574.2 90.4 574.2 90.7C574.9 102.1 585.3 110.1 599.5 110.1C612.8 110.1 622.2 102.6 622.2 91.9C622 79.6 610.5 76.4 601.3 73.9Z" fill="#fff"/>
<path d="M679.6 78.5C679.6 90.8 671.9 99.3 660.8 99.3C651.7 99.3 642 92.8 642 78.6C642 68.4 648.5 58 660.8 58C671.9 58 679.6 66.4 679.6 78.5ZM662.8 47.1C653 47.1 646 51.5 641.9 56.4V49.3C641.9 48.7 641.4 48.1 640.7 48.1H630.9C630.3 48.1 629.7 48.6 629.7 49.3V136C629.7 136.6 630.2 137.2 630.9 137.2H640.7C641.3 137.2 641.9 136.7 641.9 136V100.9C646.1 105.8 653.2 110.3 662.8 110.3C679.7 110.3 691.9 96.9 691.9 78.5C692 60 680 47.1 662.8 47.1Z" fill="#fff"/>
<path d="M730 47C722.4 47 716 49.6 711.7 54.2V28.6C711.7 28 711.2 27.4 710.5 27.4H700.7C700.1 27.4 699.5 27.9 699.5 28.6V108C699.5 108.6 700 109.2 700.7 109.2H710.5C711.1 109.2 711.7 108.7 711.7 108V75.5C711.7 64.3 717.4 57.8 727.4 57.8C737.4 57.8 742.7 64 742.7 74.8V108C742.7 108.6 743.2 109.2 743.9 109.2H753.6C754.2 109.2 754.8 108.7 754.8 108V73.4C754.7 57.4 745 47 730 47Z" fill="#fff"/>
<path d="M792.2 57.8C797.4 57.8 802.1 59.6 805.3 62.8C808 65.5 809.5 69.1 809.7 73.3H775C776.4 63.8 783 57.8 792.2 57.8ZM792.7 47.1C774.6 47.1 762.4 59.7 762.4 78.6C762.4 97.5 774.6 110.3 792.7 110.3C806.7 110.3 817.5 102.6 821 90.3C821.1 89.9 821 89.6 820.8 89.3C820.6 89 820.2 88.8 819.9 88.8H809.3C808.8 88.8 808.4 89.1 808.2 89.6C806 96 800.4 99.7 792.7 99.7C782.9 99.7 776 93.4 774.9 83.6H820.7C821.3 83.6 821.8 83.1 821.9 82.6C822.1 80.4 822.2 78.6 822.2 76.6C822.2 59.1 810.1 47.1 792.7 47.1Z" fill="#fff"/>
<path d="M859.7 47C852.1 47 845.9 49.7 841.9 54.8V49.3C841.9 48.7 841.4 48.1 840.7 48.1H830.9C830.3 48.1 829.7 48.6 829.7 49.3V108.1C829.7 108.7 830.2 109.3 830.9 109.3H840.7C841.3 109.3 841.9 108.8 841.9 108.1C841.9 108 841.9 107.9 841.8 107.7V76.1C841.8 64.7 846.7 59.5 857.1 59.5H859.7C860.3 59.5 860.9 59 860.9 58.3V48.2C860.9 47.6 860.4 47 859.7 47Z" fill="#fff"/>
<path d="M892.2 57.8C897.4 57.8 902.1 59.6 905.3 62.8C908 65.5 909.5 69.1 909.7 73.3H875C876.3 63.8 882.9 57.8 892.2 57.8ZM892.6 47.1C874.5 47.1 862.3 59.7 862.3 78.6C862.3 97.5 874.5 110.3 892.6 110.3C906.6 110.3 917.4 102.6 920.9 90.3C921 89.9 920.9 89.6 920.7 89.3C920.5 89 920.1 88.8 919.8 88.8H909.2C908.7 88.8 908.3 89.1 908.1 89.6C905.9 96 900.3 99.7 892.6 99.7C882.8 99.7 875.9 93.4 874.8 83.6H920.6C921.2 83.6 921.7 83.1 921.8 82.6C922 80.4 922.1 78.7 922.1 76.6C922.1 59.1 910 47.1 892.6 47.1Z" fill="#fff"/>
<g clip-path="url(#clip1_26_181)">
<path fill-rule="evenodd" clip-rule="evenodd" d="M110.067 3.51086C98.8973 7.94395 88.5388 16.0677 79.9992 26.3027C71.4585 16.0677 61.1011 7.94395 49.9317 3.51086C38.7617 -0.922043 28.4016 -1.01807 19.8621 2.43937V136.134C28.4016 132.677 38.7617 132.772 49.9317 137.206C61.1007 141.637 71.4574 149.76 79.998 159.995V159.998L79.9992 159.996L80.0005 159.998V159.995C88.5399 149.76 98.8978 141.637 110.067 137.206C121.237 132.772 131.596 132.677 140.137 136.134V2.43937C131.596 -1.01807 121.237 -0.922043 110.067 3.51086Z" fill="#172FB9"/>
<path fill-rule="evenodd" clip-rule="evenodd" d="M49.9316 137.206C38.7617 132.772 28.4015 132.677 19.862 136.134V17.9938C12.696 19.8547 6.0099 22.6842 0 26.3065V160C11.3613 153.154 25.1431 149.138 40.0009 149.138C54.8598 149.138 68.6391 153.151 80.0004 159.998C71.4605 149.762 61.1016 141.638 49.9316 137.206Z" fill="#30BD70"/>
<path fill-rule="evenodd" clip-rule="evenodd" d="M140.137 17.9917V136.134C131.596 132.677 121.237 132.772 110.067 137.206C98.8967 141.638 88.539 149.762 80.0004 159.996V159.998V160C91.3608 153.154 105.142 149.138 120.001 149.138C134.86 149.138 148.638 153.151 160 159.998V26.3041C153.99 22.6818 147.303 19.8523 140.137 17.9917Z" fill="#30BD70"/>
<path fill-rule="evenodd" clip-rule="evenodd" d="M125.832 88.5627C122.619 93.6487 116.962 96.7769 110.944 96.7769C101.226 96.7769 93.346 88.8972 93.346 79.1797C93.346 69.4597 101.226 61.58 110.944 61.58C116.622 61.58 122.023 64.3725 125.31 69.0133C120.306 48.4017 101.691 33.7711 80.3972 33.7711C54.8655 33.7711 34.1685 54.4669 34.1685 79.9997C34.1685 105.53 54.8655 126.229 80.3972 126.229C102.566 126.229 121.77 110.368 125.832 88.5627Z" fill="#30BD70"/>
</g>
</g>
<defs>
<clipPath id="clip0_26_181">
<rect width="922.1" height="160.1" fill="white"/>
</clipPath>
<clipPath id="clip1_26_181">
<rect width="160" height="160" fill="white"/>
</clipPath>
</defs>
</svg>
